<?xml version="1.0" encoding="UTF-8"?>
<svg width="40px" height="18px" viewBox="0 0 40 18" version="1.1" xmlns="http://www.w3.org/2000/svg" xmlns:xlink="http://www.w3.org/1999/xlink">
    <!-- Generator: Sketch 49.2 (51160) - http://www.bohemiancoding.com/sketch -->
    <title>BÊTA</title>
    <desc>Created with Sketch.</desc>
    <defs></defs>
    <g id="Homepage---Search" stroke="none" stroke-width="1" fill="none" fill-rule="evenodd">
        <g id="Homepage-1170-v1.6" transform="translate(-1090.000000, -25.000000)">
            <g id="Menu">
                <g id="Btn" transform="translate(946.000000, 14.000000)">
                    <g id="BÊTA" transform="translate(144.000000, 11.000000)">
                        <rect id="Rectangle-291" fill="#FFFFFF" x="0" y="0" width="40" height="18" rx="3"></rect>
                        <path d="M6,13.8164062 L6,5.28515625 L9.06445313,5.28515625 C10.1621149,5.28515625 10.9970675,5.48632611 11.5693359,5.88867188 C12.1416044,6.29101764 12.4277344,6.87499617 12.4277344,7.640625 C12.4277344,8.08203346 12.3261729,8.45898281 12.1230469,8.77148438 C11.9199209,9.08398594 11.6210957,9.31445238 11.2265625,9.46289062 C11.6718772,9.58007871 12.0136707,9.79882652 12.2519531,10.1191406 C12.4902356,10.4394547 12.609375,10.8300758 12.609375,11.2910156 C12.609375,12.1269573 12.3447292,12.7548807 11.8154297,13.1748047 C11.2861302,13.5947287 10.5019583,13.8085937 9.46289063,13.8164062 L6,13.8164062 Z M8.05664063,10.1894531 L8.05664063,12.234375 L9.40429688,12.234375 C9.77539248,12.234375 10.0605459,12.1494149 10.2597656,11.9794922 C10.4589854,11.8095695 10.5585938,11.570314 10.5585938,11.2617188 C10.5585938,10.5507777 10.2050817,10.1933594 9.49804688,10.1894531 L8.05664063,10.1894531 Z M8.05664063,8.84179688 L9.12890625,8.84179688 C9.57812725,8.83789061 9.89843654,8.75586018 10.0898438,8.59570312 C10.281251,8.43554607 10.3769531,8.19922031 10.3769531,7.88671875 C10.3769531,7.52734195 10.2734385,7.26855548 10.0664063,7.11035156 C9.85937396,6.95214765 9.52539293,6.87304688 9.06445313,6.87304688 L8.05664063,6.87304688 L8.05664063,8.84179688 Z M19.03125,10.2011719 L15.796875,10.2011719 L15.796875,12.234375 L19.6171875,12.234375 L19.6171875,13.8164062 L13.7402344,13.8164062 L13.7402344,5.28515625 L19.6289062,5.28515625 L19.6289062,6.87304688 L15.796875,6.87304688 L15.796875,8.671875 L19.03125,8.671875 L19.03125,10.2011719 Z M19.3535156,4.64648438 L19.3535156,4.72265625 L17.7949219,4.72265625 L16.8632812,3.92578125 L15.9316406,4.72265625 L14.4082031,4.72265625 L14.4082031,4.62304688 L16.3007812,3 L17.4316406,3 L19.3535156,4.64648438 Z M27.2695312,6.87304688 L24.7089844,6.87304688 L24.7089844,13.8164062 L22.6523438,13.8164062 L22.6523438,6.87304688 L20.1386719,6.87304688 L20.1386719,5.28515625 L27.2695312,5.28515625 L27.2695312,6.87304688 Z M32.2792969,12.2226562 L29.4609375,12.2226562 L28.96875,13.8164062 L26.7714844,13.8164062 L29.9003906,5.28515625 L31.8339844,5.28515625 L34.9863281,13.8164062 L32.7773437,13.8164062 L32.2792969,12.2226562 Z M29.953125,10.6347656 L31.7871094,10.6347656 L30.8671875,7.67578125 L29.953125,10.6347656 Z" id="NOT" fill="#FC4597"></path>
                    </g>
                </g>
            </g>
        </g>
    </g>
</svg>