<?xml version="1.0" encoding="UTF-8"?>
<svg width="72px" height="72px" viewBox="0 0 72 72" version="1.1" xmlns="http://www.w3.org/2000/svg" xmlns:xlink="http://www.w3.org/1999/xlink">
    <!-- Generator: Sketch 49.2 (51160) - http://www.bohemiancoding.com/sketch -->
    <title>003-brain</title>
    <desc>Created with Sketch.</desc>
    <defs></defs>
    <g id="Homepage---Search" stroke="none" stroke-width="1" fill="none" fill-rule="evenodd">
        <g id="Homepage-1170-v1.6" transform="translate(-259.000000, -2414.000000)" fill-rule="nonzero">
            <g id="En-quoi-CleverTXT-est-il-différent-?" transform="translate(180.000000, 2322.000000)">
                <g id="Group-9" transform="translate(0.000000, 92.000000)">
                    <g id="Group-8">
                        <g id="003-brain" transform="translate(79.000000, 0.000000)">
                            <path d="M1.42243902,35.915122 C0.500195122,37.3249756 0,38.9802439 0,40.6659512 C0,43.6930244 1.57039024,46.4566829 4.1022439,48.053122 C3.42014634,49.392878 3.06439024,50.8666829 3.06439024,52.386439 C3.06439024,56.754439 5.97409756,60.5015122 10.1345854,61.7034146 C10.2099512,65.699561 13.5418537,68.9282927 17.6244878,68.9282927 C18.6832683,68.9282927 19.7107317,68.7136098 20.658878,68.2985854 C21.9826829,70.5196098 24.4154634,71.9296098 27.1175122,71.9296098 C31.2469756,71.9296098 34.6072683,68.6255122 34.6072683,64.5654146 L34.6072683,55.5639512 C34.6072683,54.1960976 34.2538537,52.8794634 33.5784878,51.7082927 C34.254,50.4897073 34.6072683,49.1296098 34.6072683,47.7260488 L34.6072683,36.1472195 C34.6072683,33.7742927 33.5862439,31.5559024 31.8534146,29.9978049 C33.5694146,28.5264878 34.6072683,26.3656098 34.6072683,24.0756585 L34.6072683,5.26068293 C34.6072683,2.36019512 32.2068293,0 29.255561,0 C27.6033659,0 26.064,0.757463415 25.061122,2.00004878 C24.4180976,1.806 23.7440488,1.70502439 23.0659024,1.70502439 C20.4276585,1.70502439 18.0285366,3.24526829 16.9295122,5.54926829 C13.2431707,5.88380488 10.3229268,8.85453659 10.1423415,12.5212683 C6.64039024,13.1367805 3.97360976,16.1536098 3.97360976,19.770439 C3.97360976,20.6452683 4.13341463,21.5111707 4.43985366,22.3261463 C1.67312195,24.2379512 0,27.3605854 0,30.7362439 C0,32.5726829 0.488487805,34.3454634 1.42243902,35.915122 Z" id="Shape" fill="#FA7D3A"></path>
                            <path d="M71.9297561,30.7362439 C71.9297561,27.3605854 70.2566341,24.2379512 67.4899024,22.3261463 C67.7963415,21.5111707 67.9561463,20.6454146 67.9561463,19.770439 C67.9561463,16.1536098 65.2892195,13.1367805 61.7872683,12.5212683 C61.6066829,8.85453659 58.6865854,5.88380488 55.0000976,5.54926829 C53.9010732,3.24512195 51.5019512,1.70502439 48.8637073,1.70502439 C48.1857073,1.70502439 47.5113659,1.806 46.8684878,2.00004878 C45.8657561,0.757463415 44.3263902,0 42.6741951,0 C39.7227805,0 37.3223415,2.36019512 37.3223415,5.26068293 L37.3223415,24.0758049 C37.3223415,26.3657561 38.3601951,28.5266341 40.0761951,29.9979512 C38.3433659,31.5561951 37.3223415,33.774439 37.3223415,36.1473659 L37.3223415,47.7261951 C37.3223415,49.1297561 37.6757561,50.4898537 38.3512683,51.708439 C37.6757561,52.8796098 37.3223415,54.1962439 37.3223415,55.5640976 L37.3223415,64.565561 C37.3223415,68.6256585 40.6827805,71.9297561 44.8122439,71.9297561 C47.5141463,71.9297561 49.9470732,70.5197561 51.270878,68.2987317 C52.2190244,68.7137561 53.2466341,68.928439 54.3052683,68.928439 C58.3879024,68.928439 61.7198049,65.6997073 61.7950244,61.703561 C65.9556585,60.5016585 68.8653659,56.754439 68.8653659,52.3865854 C68.8653659,50.8668293 68.5094634,49.3930244 67.8275122,48.0532683 C70.3593659,46.4568293 71.9297561,43.6930244 71.9297561,40.6660976 C71.9297561,38.9803902 71.429561,37.325122 70.5073171,35.915122 C71.4412683,34.3454634 71.9297561,32.5726829 71.9297561,30.7362439 Z" id="Shape" fill="#ED3273"></path>
                            <path d="M66.5795122,45.7091707 C64.7492195,42.5906341 61.086439,41.9550732 59.1718537,41.8540976 C58.7947317,40.296 57.9149268,38.886878 56.6263902,37.8436098 C56.0574146,37.3838049 55.2196098,37.4629756 54.7545366,38.021122 C54.2869756,38.5778049 54.3674634,39.4030244 54.935122,39.8615122 C56.070439,40.7809756 56.7212195,42.1360976 56.7212195,43.578 C56.7212195,46.2305854 54.5272683,48.3878049 51.8304878,48.3878049 C49.1338537,48.3878049 46.9399024,46.2307317 46.9399024,43.578 C46.9399024,42.4258537 47.3607805,41.3123415 48.1232195,40.44 C48.1403415,40.4202439 48.1447317,40.3952195 48.1606829,40.3747317 C48.5277073,40.320878 48.8945854,40.2403902 49.2559024,40.1080976 C52.0513171,39.0825366 53.4790244,36.0121463 52.4370732,33.2625366 C52.1786341,32.585561 51.4147317,32.2470732 50.7250244,32.4936585 C50.0366341,32.7465366 49.6871707,33.5000488 49.943122,34.176878 C50.4730244,35.5741463 49.7481951,37.1360488 48.3259024,37.6570244 C46.9022927,38.1781463 45.3147805,37.4642927 44.784878,36.0670244 C44.5289268,35.3900488 43.7612195,35.0465854 43.0741463,35.2994634 C42.3857561,35.5511707 42.0362927,36.3046829 42.2934146,36.9815122 C42.8303415,38.3967805 43.9230732,39.4432683 45.2334146,39.9976098 C44.621561,41.0885854 44.279561,42.3156585 44.279561,43.5781463 C44.279561,47.6726341 47.6673659,51.0035122 51.8304878,51.0035122 C55.679122,51.0035122 58.8589756,48.1548293 59.3186341,44.49 C60.9575122,44.6240488 63.834439,45.245561 64.7034146,47.9394146 C64.7423415,48.060439 64.8038049,48.167122 64.872,48.2673659 C64.878439,48.276878 64.878439,48.2890244 64.8853171,48.2983902 C65.7491707,49.5001463 66.2051707,50.9140976 66.2051707,52.386439 C66.2051707,55.3593659 64.3524878,57.9256098 61.6434146,58.9747317 C61.2174146,56.4159512 59.5068293,54.7521951 59.418,54.6687805 C58.8853171,54.1706341 58.044878,54.1936098 57.5370732,54.7173659 C57.0317561,55.2409756 57.0538537,56.0697073 57.5863902,56.5665366 C57.6045366,56.5819024 59.3180488,58.2525366 59.075122,60.5436585 C59.0688293,60.6005854 59.0896098,60.6516585 59.0909268,60.707561 C59.0920976,60.7637561 59.0740976,60.8161463 59.0827317,60.8732195 C59.1178537,61.0991707 59.136,61.3290732 59.136,61.5642439 C59.136,64.182439 56.9692683,66.3127317 54.3052683,66.3127317 C53.658,66.3127317 53.034439,66.174439 52.4496585,65.934 C53.0413171,64.3816098 53.1459512,62.0470244 51.3228293,59.5539512 C52.2035122,58.1138049 52.1849268,56.2346341 51.1227805,54.7889268 C50.6915122,54.204 49.8588293,54.071122 49.2652683,54.4950732 C48.6703902,54.918 48.5366341,55.7366341 48.9665854,56.321561 C49.5278049,57.084 49.3523415,58.1543415 48.575561,58.7060488 C47.8014146,59.2576098 46.7116098,59.0865366 46.1490732,58.3229268 C45.7164878,57.7366829 44.8852683,57.606439 44.291561,58.0290732 C43.6953659,58.4531707 43.5626341,59.2704878 43.9927317,59.8554146 C44.8526341,61.0240976 46.1997073,61.6447317 47.5636098,61.6447317 C48.1543902,61.6447317 48.7451707,61.5166829 49.3043415,61.2778537 C50.9660488,63.7160488 49.7843415,65.4278049 49.6186829,65.6436585 C49.5446341,65.7362927 49.5081951,65.8425366 49.4634146,65.946 C49.4474634,65.982 49.4143902,66.006878 49.4016585,66.0446341 C48.750878,68.0000488 46.9063902,69.3141951 44.8123902,69.3141951 C42.149561,69.3141951 39.9828293,67.1839024 39.9828293,64.5657073 L39.9828293,55.5642439 C39.9828293,54.9226829 40.1120488,54.3033659 40.3374146,53.7181463 C41.5220488,54.4871707 43.4263902,55.3650732 46.0478049,55.3650732 C46.1724878,55.3650732 46.2984878,55.3637561 46.4259512,55.3586341 C47.1610244,55.3356585 47.736439,54.731561 47.7118537,54.0099512 C47.688439,53.3023902 47.0986829,52.7443902 46.3842439,52.7443902 C46.3685854,52.7443902 46.3542439,52.7443902 46.3399024,52.745561 C46.2398049,52.7480488 46.1424878,52.7493659 46.0463415,52.7493659 C42.9983415,52.7493659 41.2879024,51.2205366 40.9738537,50.9116098 C40.3289268,49.967122 39.9828293,48.8697073 39.9828293,47.7263415 L39.9828293,36.1475122 C39.9828293,34.0415122 41.1559024,32.1103902 43.043122,31.1105854 C43.0747317,31.0939024 43.098439,31.068439 43.128,31.0492683 C43.1452683,31.0387317 43.1653171,31.0377073 43.1821463,31.0261463 C43.4719024,30.8258049 46.1022439,29.142439 48.8795122,31.4680976 C49.1301951,31.6776585 49.4367805,31.7798049 49.7420488,31.7798049 C50.117561,31.7798049 50.4916098,31.6240976 50.7553171,31.32 C51.2307805,30.7709268 51.1644878,29.9445366 50.6045854,29.4759512 C47.5400488,26.9113171 44.2409268,27.5259512 42.3980488,28.4481951 C40.9141463,27.4927317 39.9828293,25.8440488 39.9828293,24.0760976 L39.9828293,5.26068293 C39.9828293,3.80209756 41.189561,2.61570732 42.6743415,2.61570732 C43.6053659,2.61570732 44.4443415,3.11341463 44.9322439,3.88097561 C44.6964878,4.94604878 44.1365854,6.4217561 43.3211707,6.89663415 C42.6886829,7.26453659 42.4807317,8.06663415 42.8547805,8.68858537 C43.1029756,9.10112195 43.5458049,9.32970732 44.0006341,9.32970732 C44.2305366,9.32970732 44.4643902,9.27102439 44.6773171,9.14707317 C46.445561,8.11697561 47.207122,5.80770732 47.4974634,4.58019512 C47.9360488,4.42697561 48.3929268,4.32073171 48.864,4.32073171 C50.6244878,4.32073171 52.2020488,5.45341463 52.7566829,7.08614634 C52.7724878,7.80921951 52.7265366,10.7051707 51.0864878,12.5097073 C50.4575122,13.2040976 49.6599512,13.650878 48.6810732,13.8760976 C48.383561,12.5117561 47.4048293,11.3225854 45.9698049,10.8302927 C45.2825854,10.5927805 44.5189756,10.9516098 44.2759024,11.6350244 C44.0342927,12.3169756 44.4005854,13.061561 45.0943902,13.3003902 C45.8957561,13.5749268 46.3205854,14.4395122 46.0425366,15.2263902 C45.7633171,16.0156098 44.8852683,16.4357561 44.0837561,16.1587317 C43.3862927,15.9223902 42.6316098,16.2812195 42.3898537,16.9633171 C42.1482439,17.6452683 42.5145366,18.3911707 43.2083415,18.6286829 C43.6641951,18.7845366 44.1279512,18.8585854 44.585122,18.8585854 C46.1544878,18.8585854 47.627122,17.9818537 48.3431707,16.5594146 C50.2779512,16.3243902 51.8841951,15.5666341 53.0844878,14.2391707 C54.7811707,12.3605854 55.2567805,9.84936585 55.379122,8.26068293 C57.5263902,8.74302439 59.1362927,10.6273171 59.1362927,12.881561 C59.1362927,13.1037073 59.1181463,13.3246829 59.0882927,13.5392195 C59.0754146,13.6344878 59.1074634,13.7260976 59.1185854,13.8203415 C59.0263902,14.6440976 58.6622927,16.0598049 58.0438537,16.4525854 C57.426878,16.8446341 57.2502439,17.6541951 57.6490244,18.2609268 C57.9036585,18.648 58.3308293,18.8585854 58.7675122,18.8585854 C59.0142439,18.8585854 59.2649268,18.7909756 59.4883902,18.6491707 C60.7412195,17.8535122 61.3182439,16.3033171 61.5816585,15.162439 C63.7060976,15.660439 65.2960976,17.531122 65.2960976,19.770439 C65.2960976,20.1692195 65.2409268,20.5646341 65.1406829,20.9483415 C62.8524878,19.920878 59.1354146,19.3881951 55.2806341,21.8821463 C54.1557073,21.162 52.8398049,20.7995122 51.4814634,20.8842439 C49.8187317,20.9929756 48.2976585,21.7309756 47.1999512,22.9647805 C46.7167317,23.507561 46.7727805,24.3338049 47.3260976,24.8102927 C47.8767805,25.2841463 48.7159024,25.2317561 49.2030732,24.6864878 C49.8317561,23.9800976 50.7035122,23.5561463 51.6569268,23.4948293 C52.6065366,23.436 53.5327317,23.7387805 54.2522927,24.359561 C55.7370732,25.6366829 55.8864878,27.8641463 54.5862439,29.3252195 C54.1030244,29.868 54.1587805,30.6942439 54.7122439,31.1707317 C54.9642439,31.3879024 55.2759512,31.4938537 55.5878049,31.4938537 C55.9580488,31.4938537 56.3256585,31.343122 56.5893659,31.0469268 C58.4325366,28.9756098 58.5744878,26.0320976 57.1801463,23.8022927 C61.4354634,21.3482927 64.8225366,23.7515122 64.9807317,23.868 C65.0110244,23.8903902 65.0470244,23.8947805 65.0786341,23.9143902 C65.1070244,23.9323902 65.1259024,23.9618049 65.1561951,23.9777561 C67.6922927,25.3170732 69.2692683,27.9073171 69.2692683,30.7362439 C69.2692683,31.7616585 69.0430244,32.7526829 68.6480488,33.6813659 C67.6498537,32.8658049 66.5918049,32.5542439 65.7791707,32.4500488 C65.2900976,30.3753659 63.7403415,28.6558537 61.619561,27.9876585 C60.9270732,27.7704878 60.1712195,28.1473171 59.9477561,28.8343902 C59.723122,29.5214634 60.108878,30.258439 60.8088293,30.4780976 C62.2639024,30.9365854 63.2626829,32.2558537 63.2938537,33.7590732 C63.3212195,35.0234634 62.6483415,36.2111707 61.5414146,36.8587317 C60.9100976,37.2276585 60.7022927,38.0299024 61.0776585,38.6505366 C61.3258537,39.0617561 61.7686829,39.2903415 62.2220488,39.2903415 C62.4532683,39.2903415 62.687122,39.2315122 62.9000488,39.1063902 C64.4107317,38.2235122 65.4450732,36.761561 65.8058049,35.112 C66.4014146,35.2672683 67.1531707,35.6566829 67.7620976,36.6376098 C67.7821463,36.6702439 67.8103902,36.6940976 67.8332195,36.7240976 C67.8463902,36.7420976 67.8516585,36.7633171 67.8658537,36.7805854 C68.7829756,37.8905854 69.2686829,39.234 69.2686829,40.6656585 C69.2692683,42.7101951 68.2382927,44.5716585 66.5795122,45.7091707 Z" id="Shape" fill="#FFFFFF"></path>
                            <path d="M2.66034146,40.6659512 C2.66034146,39.2342927 3.14604878,37.890878 4.06317073,36.780878 C4.0775122,36.7636098 4.08263415,36.7423902 4.09580488,36.7243902 C4.1184878,36.6942439 4.14687805,36.6705366 4.16692683,36.6379024 C4.77585366,35.657122 5.52746341,35.267561 6.12336585,35.1122927 C6.48409756,36.7618537 7.51829268,38.2238049 9.02897561,39.1066829 C9.24204878,39.2319512 9.47590244,39.2906341 9.70712195,39.2906341 C10.1604878,39.2906341 10.6033171,39.0620488 10.8516585,38.6508293 C11.226878,38.0300488 11.0190732,37.2279512 10.3879024,36.8590244 C9.28112195,36.2114634 8.6082439,35.0237561 8.63546341,33.7593659 C8.66663415,32.2561463 9.66556098,30.936878 11.1203415,30.4783902 C11.820439,30.2587317 12.2061951,29.5217561 11.981561,28.8346829 C11.7579512,28.1476098 11.0020976,27.7707805 10.3097561,27.9879512 C8.18882927,28.6561463 6.63907317,30.3755122 6.15014634,32.4503415 C5.33765854,32.5545366 4.27960976,32.8660976 3.28141463,33.6816585 C2.88643902,32.7529756 2.66019512,31.7619512 2.66019512,30.7365366 C2.66019512,27.9076098 4.23717073,25.3173659 6.774,23.9777561 C6.80429268,23.9618049 6.82302439,23.9323902 6.85156098,23.9143902 C6.88302439,23.8947805 6.91917073,23.8903902 6.94931707,23.868 C7.1075122,23.7515122 10.4945854,21.3482927 14.7500488,23.8022927 C13.355561,26.0320976 13.4975122,28.9756098 15.3408293,31.0469268 C15.6045366,31.343122 15.9721463,31.4938537 16.3423902,31.4938537 C16.6540976,31.4938537 16.9659512,31.3879024 17.2178049,31.1707317 C17.7712683,30.6942439 17.8271707,29.868 17.3439512,29.3252195 C16.0437073,27.8641463 16.193122,25.6366829 17.6779024,24.359561 C18.3974634,23.7387805 19.3236585,23.436 20.2732683,23.4948293 C21.2266829,23.5561463 22.098439,23.9800976 22.7269756,24.6864878 C23.2141463,25.2317561 24.0532683,25.2841463 24.6039512,24.8102927 C25.1572683,24.3338049 25.2131707,23.507561 24.7299512,22.9647805 C23.6323902,21.7309756 22.1113171,20.9928293 20.448439,20.8843902 C19.0902439,20.7995122 17.7741951,21.1621463 16.6494146,21.8821463 C12.7946341,19.3881951 9.07756098,19.920878 6.78936585,20.9483415 C6.68897561,20.5646341 6.63380488,20.1692195 6.63380488,19.770439 C6.63380488,17.531122 8.22380488,15.660439 10.3482439,15.162439 C10.6115122,16.3033171 11.1885366,17.8535122 12.4415122,18.6491707 C12.6649756,18.7909756 12.9155122,18.8585854 13.1623902,18.8585854 C13.5989268,18.8585854 14.0262439,18.648 14.2807317,18.2609268 C14.6795122,17.6541951 14.502878,16.8446341 13.8859024,16.4525854 C13.2676098,16.0598049 12.9035122,14.6440976 12.8113171,13.8203415 C12.822439,13.7260976 12.8544878,13.6344878 12.8416098,13.5392195 C12.8117561,13.3248293 12.7936098,13.1038537 12.7936098,12.881561 C12.7936098,10.6271707 14.4036585,8.74302439 16.5507805,8.26068293 C16.673122,9.84936585 17.1487317,12.3605854 18.8454146,14.2391707 C20.045561,15.5667805 21.6518049,16.3243902 23.5865854,16.5594146 C24.3026341,17.9818537 25.7754146,18.8585854 27.3446341,18.8585854 C27.8018049,18.8585854 28.2657073,18.7846829 28.721561,18.6286829 C29.4152195,18.3910244 29.7815122,17.6452683 29.5400488,16.9633171 C29.298439,16.2812195 28.5436098,15.9223902 27.8461463,16.1587317 C27.0446341,16.4359024 26.166439,16.0156098 25.8873659,15.2263902 C25.6093171,14.4395122 26.034,13.5749268 26.8355122,13.3003902 C27.5291707,13.061561 27.8954634,12.3169756 27.654,11.6350244 C27.4110732,10.9517561 26.6471707,10.5927805 25.9600976,10.830439 C24.5249268,11.3225854 23.5461951,12.5117561 23.2486829,13.8760976 C22.2698049,13.6510244 21.4725366,13.2042439 20.8434146,12.5097073 C19.2033659,10.7050244 19.1572683,7.80921951 19.1732195,7.08614634 C19.7278537,5.45341463 21.3054146,4.32073171 23.0659024,4.32073171 C23.537122,4.32073171 23.9938537,4.42712195 24.432439,4.58019512 C24.7227805,5.80770732 25.4843415,8.11697561 27.2525854,9.14707317 C27.4655122,9.27102439 27.6993659,9.32970732 27.9292683,9.32970732 C28.3839512,9.32970732 28.8269268,9.10112195 29.0749756,8.68858537 C29.4490244,8.06663415 29.2412195,7.26453659 28.6087317,6.89663415 C27.7931707,6.4217561 27.2334146,4.94604878 26.9976585,3.88097561 C27.4854146,3.11341463 28.3245366,2.61570732 29.255561,2.61570732 C30.7403415,2.61570732 31.9470732,3.80209756 31.9470732,5.26068293 L31.9470732,24.0758049 C31.9470732,25.8437561 31.0157561,27.492439 29.5318537,28.4479024 C27.6889756,27.5258049 24.3898537,26.9110244 21.3253171,29.4756585 C20.7654146,29.9443902 20.699122,30.7706341 21.1745854,31.3197073 C21.4382927,31.6236585 21.8123415,31.7795122 22.1878537,31.7795122 C22.493122,31.7795122 22.799561,31.6775122 23.0503902,31.4678049 C25.8276585,29.1421463 28.458,30.8255122 28.7477561,31.0258537 C28.7645854,31.0374146 28.7847805,31.038439 28.8017561,31.0489756 C28.8313171,31.0681463 28.8551707,31.0936098 28.8866341,31.1102927 C30.774,32.1102439 31.9470732,34.0413659 31.9470732,36.1472195 L31.9470732,47.7260488 C31.9470732,48.8694146 31.6008293,49.9668293 30.9560488,50.9113171 C30.642,51.2202439 28.931561,52.7490732 25.883561,52.7490732 C25.7874146,52.7490732 25.6900976,52.7477561 25.5898537,52.7452683 C25.5756585,52.7440976 25.5613171,52.7440976 25.5456585,52.7440976 C24.8312195,52.7440976 24.2414634,53.3020976 24.2180488,54.0096585 C24.1934634,54.7312683 24.768878,55.3353659 25.5039512,55.3583415 C25.6312683,55.3634634 25.7572683,55.3647805 25.8820976,55.3647805 C28.5033659,55.3647805 30.4077073,54.4867317 31.5924878,53.7178537 C31.8178537,54.3030732 31.9470732,54.9223902 31.9470732,55.5639512 L31.9470732,64.5654146 C31.9470732,67.1836098 29.7804878,69.3139024 27.1175122,69.3139024 C25.0235122,69.3139024 23.178878,67.9997561 22.5280976,66.0443415 C22.5155122,66.0067317 22.4822927,65.9817073 22.4663415,65.9457073 C22.421561,65.8422439 22.3852683,65.736 22.3112195,65.6433659 C22.145561,65.4275122 20.9637073,63.7157561 22.6254146,61.277561 C23.1847317,61.5163902 23.7753659,61.644439 24.3661463,61.644439 C25.7301951,61.644439 27.077122,61.0238049 27.9370244,59.855122 C28.3669756,59.2701951 28.2343902,58.452878 27.6381951,58.0287805 C27.0446341,57.6061463 26.2134146,57.7363902 25.7806829,58.3226341 C25.2181463,59.0863902 24.1284878,59.2573171 23.3541951,58.7057561 C22.5774146,58.1540488 22.4020976,57.0837073 22.9633171,56.3212683 C23.3932683,55.7363415 23.2595122,54.9177073 22.6644878,54.4947805 C22.0707805,54.0708293 21.2382439,54.2037073 20.8069756,54.7886341 C19.7448293,56.2343415 19.7262439,58.1135122 20.6069268,59.5536585 C18.7838049,62.046878 18.888439,64.3813171 19.4800976,65.9337073 C18.8951707,66.1741463 18.2716098,66.312439 17.6243415,66.312439 C14.9601951,66.312439 12.7936098,64.1821463 12.7936098,61.5639512 C12.7936098,61.3287805 12.8117561,61.0990244 12.8467317,60.8729268 C12.8555122,60.8158537 12.8372195,60.7634634 12.8386829,60.7072683 C12.84,60.6513659 12.8607805,60.6002927 12.8544878,60.5433659 C12.611561,58.2522439 14.3250732,56.5816098 14.3430732,56.5662439 C14.8757561,56.0694146 14.8977073,55.2406829 14.3923902,54.7170732 C13.8845854,54.1933171 13.0441463,54.1703415 12.5116098,54.6684878 C12.4226341,54.7517561 10.7121951,56.4156585 10.2860488,58.974439 C7.57712195,57.9253171 5.72443902,55.3590732 5.72443902,52.3861463 C5.72443902,50.9136585 6.18043902,49.4998537 7.04429268,48.2980976 C7.05102439,48.2887317 7.05102439,48.2765854 7.05746341,48.2670732 C7.12580488,48.1668293 7.18712195,48.0601463 7.22604878,47.939122 C8.09517073,45.2452683 10.9719512,44.6237561 12.6109756,44.4897073 C13.0704878,48.1545366 16.2503415,51.0032195 20.0989756,51.0032195 C24.2620976,51.0032195 27.6499024,47.6723415 27.6499024,43.5778537 C27.6499024,42.3153659 27.3079024,41.0882927 26.6961951,39.9973171 C28.0063902,39.4429756 29.0992683,38.3964878 29.6360488,36.9812195 C29.8931707,36.3043902 29.5437073,35.550878 28.8553171,35.2991707 C28.1682439,35.046439 27.4005366,35.3899024 27.1445854,36.0667317 C26.6146829,37.464 25.0273171,38.1778537 23.603561,37.6567317 C22.1812683,37.1357561 21.456439,35.5738537 21.9863415,34.1765854 C22.2422927,33.4996098 21.8928293,32.7462439 21.2042927,32.4933659 C20.5145854,32.2467805 19.7508293,32.5852683 19.4922439,33.2622439 C18.450439,36.0118537 19.8781463,39.0822439 22.673561,40.1078049 C23.034878,40.2402439 23.4019024,40.3207317 23.7687805,40.374439 C23.7847317,40.3949268 23.7888293,40.4199512 23.8062439,40.4397073 C24.5686829,41.3120488 24.989561,42.4257073 24.989561,43.5777073 C24.989561,46.2302927 22.7954634,48.3875122 20.0989756,48.3875122 C17.4023415,48.3875122 15.2083902,46.230439 15.2083902,43.5777073 C15.2083902,42.1358049 15.8591707,40.7806829 16.9944878,39.8612195 C17.5621463,39.4027317 17.6426341,38.5775122 17.1750732,38.0208293 C16.71,37.4625366 15.8720488,37.3835122 15.3032195,37.8433171 C14.0145366,38.8865854 13.1347317,40.2958537 12.7577561,41.8538049 C10.8430244,41.9547805 7.1802439,42.5903415 5.34995122,45.708878 C3.69117073,44.5716585 2.66034146,42.7101951 2.66034146,40.6659512 Z" id="Shape" fill="#FEEBDC"></path>
                        </g>
                    </g>
                </g>
            </g>
        </g>
    </g>
</svg>