<?xml version="1.0" encoding="UTF-8"?>
<svg width="79px" height="72px" viewBox="0 0 79 72" version="1.1" xmlns="http://www.w3.org/2000/svg" xmlns:xlink="http://www.w3.org/1999/xlink">
    <!-- Generator: Sketch 49.2 (51160) - http://www.bohemiancoding.com/sketch -->
    <title>Group 5</title>
    <desc>Created with Sketch.</desc>
    <defs>
        <rect id="path-1" x="0" y="0" width="72.1875" height="72" rx="36"></rect>
    </defs>
    <g id="Homepage---Search" stroke="none" stroke-width="1" fill="none" fill-rule="evenodd">
        <g id="Homepage-1170-v1.6" transform="translate(-547.000000, -2414.000000)">
            <g id="En-quoi-CleverTXT-est-il-différent-?" transform="translate(180.000000, 2322.000000)">
                <g id="Group-9" transform="translate(0.000000, 92.000000)">
                    <g id="Group-6" transform="translate(290.000000, 0.000000)">
                        <g id="Group-5" transform="translate(77.000000, 0.000000)">
                            <g id="Combined-Shape">
                                <use fill="#FEEBDC" fill-rule="evenodd" xlink:href="#path-1"></use>
                                <rect stroke="#FA7D3A" stroke-width="3.60000014" x="1.80000007" y="1.80000007" width="68.5874999" height="68.3999999" rx="34.1999999"></rect>
                            </g>
                            <path d="M25.3280093,42.8355556 C25.9459105,42.8355556 26.4865741,43.0666667 26.95,43.5288889 C27.4134259,43.9911111 27.6451389,44.5303704 27.6451389,45.1466667 C27.6451389,45.762963 27.4134259,46.3022222 26.95,46.7644444 C26.4865741,47.2266667 25.9459105,47.4577778 25.3280093,47.4577778 L23.0108796,47.4577778 C22.3929784,47.4577778 21.8523148,47.2266667 21.3888889,46.7644444 C20.925463,46.3022222 20.69375,45.762963 20.69375,45.1466667 C20.69375,44.5303704 20.9100154,43.9911111 21.3425463,43.5288889 C21.7750772,43.0666667 22.3311883,42.8355556 23.0108796,42.8355556 L25.3280093,42.8355556 Z M25.3280093,34.7466667 C25.9459105,34.7466667 26.4865741,34.9777778 26.95,35.44 C27.4134259,35.9022222 27.6451389,36.4414815 27.6451389,37.0577778 C27.6451389,37.6740741 27.4134259,38.2133333 26.95,38.6755556 C26.4865741,39.1377778 25.9459105,39.3688889 25.3280093,39.3688889 L23.0108796,39.3688889 C22.3929784,39.3688889 21.8523148,39.1377778 21.3888889,38.6755556 C20.925463,38.2133333 20.69375,37.6740741 20.69375,37.0577778 C20.69375,36.4414815 20.9100154,35.9022222 21.3425463,35.44 C21.7750772,34.9777778 22.3311883,34.7466667 23.0108796,34.7466667 L25.3280093,34.7466667 Z M25.3280093,25.5022222 C25.9459105,25.5022222 26.4865741,25.7333333 26.95,26.1955556 C27.4134259,26.6577778 27.6451389,27.197037 27.6451389,27.8133333 C27.6451389,28.4296296 27.4134259,28.9688889 26.95,29.4311111 C26.4865741,29.8933333 25.9459105,30.1244444 25.3280093,30.1244444 L23.0108796,30.1244444 C22.3929784,30.1244444 21.8523148,29.8933333 21.3888889,29.4311111 C20.925463,28.9688889 20.69375,28.4296296 20.69375,27.8133333 C20.69375,27.197037 20.9100154,26.6577778 21.3425463,26.1955556 C21.7750772,25.7333333 22.3311883,25.5022222 23.0108796,25.5022222 L25.3280093,25.5022222 Z M34.4677984,30.1244444 C33.884225,30.1244444 33.3735983,29.8933333 32.9359182,29.4311111 C32.4982382,28.9688889 32.2793981,28.4296296 32.2793981,27.8133333 C32.2793981,27.197037 32.4982382,26.6577778 32.9359182,26.1955556 C33.3735983,25.7333333 33.884225,25.5022222 34.4677984,25.5022222 L49.7865998,25.5022222 C50.4285305,25.5022222 50.9537466,25.7333333 51.3622479,26.1955556 C51.7707493,26.6577778 51.975,27.197037 51.975,27.8133333 C51.975,28.4296296 51.75616,28.9688889 51.3184799,29.4311111 C50.8807999,29.8933333 50.3701732,30.1244444 49.7865998,30.1244444 L34.4677984,30.1244444 Z M49.7865998,34.7466667 C50.4285305,34.7466667 50.9537466,34.9777778 51.3622479,35.44 C51.7707493,35.9022222 51.975,36.4414815 51.975,37.0577778 C51.975,37.6740741 51.75616,38.2133333 51.3184799,38.6755556 C50.8807999,39.1377778 50.3701732,39.3688889 49.7865998,39.3688889 L34.4677984,39.3688889 C33.884225,39.3688889 33.3735983,39.1377778 32.9359182,38.6755556 C32.4982382,38.2133333 32.2793981,37.6740741 32.2793981,37.0577778 C32.2793981,36.4414815 32.4982382,35.9022222 32.9359182,35.44 C33.3735983,34.9777778 33.884225,34.7466667 34.4677984,34.7466667 L49.7865998,34.7466667 Z M49.7865998,42.8355556 C50.4285305,42.8355556 50.9537466,43.0666667 51.3622479,43.5288889 C51.7707493,43.9911111 51.975,44.5303704 51.975,45.1466667 C51.975,45.762963 51.75616,46.3022222 51.3184799,46.7644444 C50.8807999,47.2266667 50.3701732,47.4577778 49.7865998,47.4577778 L34.4677984,47.4577778 C33.884225,47.4577778 33.3735983,47.2266667 32.9359182,46.7644444 C32.4982382,46.3022222 32.2793981,45.762963 32.2793981,45.1466667 C32.2793981,44.5303704 32.4982382,43.9911111 32.9359182,43.5288889 C33.3735983,43.0666667 33.884225,42.8355556 34.4677984,42.8355556 L49.7865998,42.8355556 Z" id="Shape" fill="#FA7D3A" fill-rule="nonzero"></path>
                            <ellipse id="Oval-4-Copy" stroke="#FFFFFF" stroke-width="3.60000014" fill="#ED3273" cx="68.3375" cy="11.04" rx="8.6625" ry="8.64"></ellipse>
                        </g>
                    </g>
                </g>
            </g>
        </g>
    </g>
</svg>