<?xml version="1.0" encoding="UTF-8"?>
<svg width="80px" height="84px" viewBox="0 0 80 84" version="1.1" xmlns="http://www.w3.org/2000/svg" xmlns:xlink="http://www.w3.org/1999/xlink">
    <!-- Generator: Sketch 49.2 (51160) - http://www.bohemiancoding.com/sketch -->
    <title>001-medal</title>
    <desc>Created with Sketch.</desc>
    <defs>
        <path d="M46.6051571,29.2721115 C47.0845457,28.8045596 46.8182187,27.9863437 46.1577276,27.8907081 L40.0108995,26.998109 C39.7445725,26.9556043 39.5208578,26.7962116 39.4036739,26.5518094 L36.6551788,20.9943173 C36.3568925,20.3886251 35.4939929,20.3886251 35.1957066,20.9943173 L32.4578646,26.5518094 C32.3406807,26.7855854 32.1063129,26.9556043 31.8506389,26.998109 L25.7038108,27.8907081 C25.0433198,27.9863437 24.7769927,28.8045596 25.2563814,29.2721115 L29.6987165,33.5969667 C29.8904719,33.788238 29.9756966,34.0538925 29.9330842,34.3089208 L28.8890822,40.4083481 C28.7718983,41.0671712 29.4750017,41.5772279 30.0715743,41.2584425 L35.5685645,38.3787477 C35.8029323,38.2512336 36.0905655,38.2512336 36.3249333,38.3787477 L41.8219234,41.2584425 C42.418496,41.5666017 43.1109463,41.0671712 43.0044155,40.4083481 L41.9497604,34.3089208 C41.9071481,34.0432663 41.9923727,33.7776118 42.1841282,33.5969667 L46.6051571,29.2721115 Z" id="path-1"></path>
    </defs>
    <g id="Homepage---Search" stroke="none" stroke-width="1" fill="none" fill-rule="evenodd">
        <g id="Homepage-1170-v1.6" transform="translate(-835.000000, -2412.000000)" fill-rule="nonzero">
            <g id="En-quoi-CleverTXT-est-il-différent-?" transform="translate(180.000000, 2322.000000)">
                <g id="Group-9" transform="translate(0.000000, 92.000000)">
                    <g id="Group-7" transform="translate(580.000000, 0.000000)">
                        <g id="001-medal" transform="translate(79.000000, 0.000000)">
                            <g id="Group" transform="translate(0.000000, 48.952991)" fill="#FFFFFF" stroke="#ED3273" stroke-width="3.60000014">
                                <path d="M10.7923077,0.107420357 L0.115384615,18.5683761 L12.5769231,17.9085082 L18.2384615,29.0034965 L28.1153846,11.9236597 C21.0384615,10.0975136 14.9615385,5.8467366 10.7923077,0.107420357 Z" id="Shape"></path>
                                <path d="M61.1307692,0.0153457653 C56.9923077,5.77000777 50.9153846,10.0361305 43.8538462,11.8929681 L53.7615385,29.0034965 L59.4230769,17.9085082 L71.8846154,18.5683761 L61.1307692,0.0153457653 Z" id="Shape"></path>
                            </g>
                            <ellipse id="Oval" stroke="#FA7D3A" stroke-width="3.60000014" fill="#FFFFFF" cx="35.9307692" cy="30.9524087" rx="31.0307692" ry="30.9524087"></ellipse>
                            <ellipse id="Oval" stroke="#FA7D3A" stroke-width="3.60000014" fill="#FEEBDC" cx="35.9307692" cy="30.9524087" rx="22.4923077" ry="22.4355089"></ellipse>
                            <g id="Shape">
                                <use fill="#FFFFFF" fill-rule="evenodd" xlink:href="#path-1"></use>
                                <path stroke="#ED3273" stroke-width="3.60000014" d="M45.8981165,29.6718884 C45.89843,29.671934 45.8987437,29.6719796 45.8990573,29.672025 L45.8981165,29.6718884 Z M43.91664,29.3840946 L39.7272169,28.7756141 C38.8814765,28.6406373 38.1551467,28.1111983 37.7902072,27.3497602 L35.9271531,23.5826372 L34.067018,27.358423 C33.6915697,28.1074236 32.968448,28.6369824 32.1093093,28.7794259 L27.9508993,29.3832808 L30.9698986,32.3225664 C31.5702327,32.9213845 31.8479402,33.7708703 31.7072825,34.6125996 L31.0008511,38.7396679 L34.7083095,36.797621 C35.4790555,36.3782757 36.4144422,36.3782757 37.1602185,36.7842889 L40.888864,38.7376282 L40.1724796,34.5940056 C40.0364055,33.7456898 40.3190778,32.881017 40.9254082,32.3102561 L43.91664,29.3840946 Z M35.0419641,21.7927719 L35.0403765,21.7895617 C35.0409041,21.7906332 35.0414333,21.7917032 35.0419639,21.7927715 Z M29.2514808,39.656026 C29.2464099,39.6586285 29.2413459,39.661281 29.2362891,39.6639837 L29.2514809,39.6560259 Z M36.3785262,39.9864723 C36.3870405,39.9821883 36.395483,39.9777663 36.4038497,39.9732065 L36.3785262,39.9864723 Z"></path>
                            </g>
                        </g>
                    </g>
                </g>
            </g>
        </g>
    </g>
</svg>